<?xml version="1.0" encoding="UTF-8"?>
<svg width="220px" height="29px" viewBox="0 0 220 29" version="1.1" xmlns="http://www.w3.org/2000/svg" xmlns:xlink="http://www.w3.org/1999/xlink">
    <title>629DDDBF-EFE8-4C74-ACEA-A503EED53B88</title>
    <g id="Page-1" stroke="none" stroke-width="1" fill="none" fill-rule="evenodd">
        <g id="ALB-typography" transform="translate(-41.000000, -58.000000)">
            <g id="AllicaBank_Orange&amp;Blue_RGB" transform="translate(41.000000, 58.000000)">
                <g id="Logo---Wordmark-Copy-2" transform="translate(35.588235, 0.000000)" fill="#FFFFFF">
                    <path d="M81.0513072,23.9222642 C84.0565359,23.9222642 86.2637255,21.6515094 86.2637255,18.6037736 C86.2637255,15.5560377 84.0619281,13.2834591 81.0513072,13.2834591 C78.0406863,13.2834591 75.8388889,15.5615094 75.8388889,18.6037736 C75.8388889,21.6460377 78.0478758,23.9222642 81.0513072,23.9222642 Z M87.4661765,8.89880503 L91.3269608,8.89880503 L91.3269608,28.3087421 L87.2738562,28.3087421 L86.8281046,26.570566 C85.1109963,28.0855974 82.9060153,28.9090884 80.630719,28.8850943 C74.879085,28.8850943 70.595915,24.4785535 70.595915,18.6037736 C70.595915,12.7289937 74.8754902,8.37899371 80.630719,8.37899371 C82.944949,8.3499216 85.187167,9.19503066 86.9215686,10.7500629 L87.4661765,8.89880503 Z M61.8857843,23.9751572 C63.8808824,23.9751572 65.5794118,22.6984277 66.4151961,21.6168553 L69.9848039,24.6773585 C67.4048281,28.2651819 62.8421808,29.7600822 58.6817234,28.3806861 C54.521266,27.0012901 51.7086042,23.0611125 51.7138876,18.6196545 C51.719186,14.1781966 54.5412271,10.2449308 58.7049587,8.87574569 C62.8686903,7.50656058 67.4277628,9.01265006 69.999183,12.6067925 L66.4044118,15.5596855 C65.3511438,14.3777987 63.7784314,13.3363522 61.8354575,13.3363522 C59.069281,13.3363522 56.9825163,15.7074214 56.9825163,18.6347799 C56.9825163,21.5621384 59.1196078,23.9751572 61.8857843,23.9751572 Z M49.6473856,3.1827044 C49.6444081,4.93696346 48.2409105,6.35681112 46.5121518,6.35446495 C44.7833932,6.35211296 43.3836478,4.92845617 43.3852987,3.17419532 C43.3869526,1.41993446 44.7893773,-0.00100443692 46.5181373,-5.32186015e-07 C48.2466641,0.00100690306 49.6473856,1.42320757 49.6473856,3.1772327 L49.6473856,3.1827044 Z M43.9316993,28.3415723 L43.9316993,8.93710692 L49.1027778,8.93710692 L49.1027778,28.3361006 L43.9316993,28.3415723 Z M35.1352941,28.3415723 L35.1352941,3.1954717 L40.3063725,3.1954717 L40.3063725,28.3361006 L35.1352941,28.3415723 Z M26.3281046,28.3415723 L26.3281046,3.1954717 L31.499183,3.1954717 L31.499183,28.3361006 L26.3281046,28.3415723 Z M9.11993464,18.8226415 L15.6264706,18.8226415 L12.3570261,9.82534591 L9.11993464,18.8226415 Z M14.8356209,3.1772327 L24.8668301,28.3361006 L19.0522876,28.3361006 L17.3214052,23.5666038 L7.45375817,23.5666038 L5.75163399,28.3361006 L0.052124183,28.3361006 L9.77058824,3.1772327 L14.8356209,3.1772327 Z" id="Allica"></path>
                </g>
                <path d="M12.6589869,28.8850943 C19.6465534,28.886103 25.3130126,23.1409548 25.3179739,16.0503145 L25.3179739,3.1954717 L0,3.1954717 L0,16.0503145 C0.00496128014,23.1409548 5.67142047,28.886103 12.6589869,28.8850943 Z" id="Shield-2-Copy" fill="#FF6F02"></path>
                <path d="M151.079248,15.0836478 C153.264869,16.2454717 154.503268,18.4250314 154.503268,21.0769811 C154.503268,25.1132704 151.01634,28.3215094 146.716993,28.3215094 L136.202288,28.3215094 L136.202288,3.22283019 L146.431209,3.22283019 C150.696405,3.22283019 153.866993,5.98421384 153.866993,9.67578616 C153.864092,11.832284 152.823259,13.8513642 151.079248,15.0836478 L151.079248,15.0836478 Z M146.211928,23.3459119 C147.973366,23.3459119 149.13268,22.1658491 149.13268,20.517044 C149.13268,18.9028931 147.973366,17.7173585 146.211928,17.7173585 L141.454248,17.7173585 L141.454248,23.3459119 L146.211928,23.3459119 Z M148.676144,10.5330189 C148.676144,8.95899371 147.597712,7.85735849 145.920752,7.85735849 L141.463235,7.85735849 L141.463235,13.2068553 L145.920752,13.2068553 C147.608497,13.2068553 148.676144,12.1125157 148.676144,10.5293711 L148.676144,10.5330189 Z" id="Shape" fill="#FFFFFF" fill-rule="nonzero"></path>
                <path d="M177.089216,8.93710692 L177.089216,28.2704403 L173.05049,28.2704403 L172.608333,26.5413836 C170.898531,28.0498633 168.703474,28.8706348 166.437908,28.8486164 C160.706046,28.8486164 156.442647,24.4584906 156.442647,18.6055975 C156.442647,12.7527044 160.702451,8.4209434 166.437908,8.4209434 C168.741745,8.39584741 170.972465,9.24096911 172.696405,10.7920126 L173.235621,8.94440252 L177.089216,8.93710692 Z M172.040359,18.6037736 C172.040359,15.568805 169.852941,13.3144654 166.853105,13.3144654 C163.853268,13.3144654 161.660458,15.5742767 161.660458,18.6037736 C161.660458,21.6332704 163.860458,23.9022013 166.853105,23.9022013 C169.845752,23.9022013 172.040359,21.6423899 172.040359,18.6128931 L172.040359,18.6037736 Z" id="Shape" fill="#FFFFFF" fill-rule="nonzero"></path>
                <path d="M198.665033,16.5573585 L198.665033,28.3215094 L193.511928,28.3215094 L193.511928,17.4072956 C193.511928,15.9481761 193.238725,14.8538365 192.688725,14.1242767 C192.138725,13.394717 191.304739,13.0518239 190.190359,13.0518239 C188.863889,13.0518239 187.792647,13.5369811 187.057516,14.4106289 C186.322386,15.2842767 185.914379,16.5500629 185.914379,18.1131447 L185.914379,28.3142138 L180.763072,28.3142138 L180.763072,8.91157233 L184.298529,8.91157233 L184.8,10.1116981 L185.310458,11.3081761 C186.053073,10.4141388 186.98433,9.70102945 188.035294,9.22163522 C189.164656,8.70407314 190.390898,8.44027492 191.630065,8.44812405 C193.79951,8.44812405 195.564542,9.24534591 196.784967,10.6588679 C198.005392,12.0723899 198.665033,14.100566 198.665033,16.5573585 Z" id="Path" fill="#FFFFFF" fill-rule="nonzero"></path>
                <polygon id="Path" fill="#FFFFFF" fill-rule="nonzero" points="213.603105 28.2832075 210.547549 23.6614465 207.491993 19.0378616 207.491993 28.2868553 202.340686 28.2868553 202.340686 1.51930818 207.491993 1.51930818 207.491993 17.5386164 210.351634 13.2433333 213.211275 8.94805031 219.142647 8.94805031 215.937908 13.5515723 212.715196 18.1587421 216.281209 23.2218868 219.847222 28.2868553 213.603105 28.2868553"></polygon>
            </g>
        </g>
    </g>
</svg>